<?xml version="1.0" encoding="utf-8"?>
<svg xmlns="http://www.w3.org/2000/svg" fill="none" height="70" viewBox="0 0 42 70" width="42">
<path d="M15.4412 41.2088H23.4243C26.1728 41.2088 27.9176 39.5592 27.9176 36.9627C27.9176 33.8774 25.4007 33.022 22.7294 33.022H15.4566V41.2088H15.4412ZM15.4412 30.3644H21.8029C25.4162 30.3644 26.8985 29.0661 26.8985 26.5918C26.8985 23.3079 24.5515 22.8497 21.8029 22.8497H15.4412V30.3797V30.3644ZM12.2603 20.192H20.9382C23.0537 20.192 25.8331 20.192 27.2691 21.0473C28.8441 21.9791 30.0794 23.6592 30.0794 25.9808C30.0794 28.501 28.736 30.3949 26.5279 31.2808V31.3419C29.4772 31.9376 31.0831 34.1218 31.0831 37.0391C31.0831 40.5215 28.5662 43.8359 23.8103 43.8359H12.2449V20.1767L12.2603 20.192ZM21.0309 11.2874C9.45 11.2874 0.0772059 20.5739 0.0772059 32.0292C0.0772059 43.4846 9.46544 52.7558 21.0309 52.7558C32.5963 52.7558 42 43.4693 42 32.0292C42 20.5891 32.6118 11.3026 21.0309 11.3026M39.236 32.0445C39.236 41.9878 31.0831 50.0371 21.0309 50.0371C10.9787 50.0371 2.82574 41.9725 2.82574 32.0292C2.82574 22.086 10.9787 14.0367 21.0154 14.0367C31.0522 14.0367 39.2206 22.1012 39.2206 32.0292M41.9382 59.8429H0.108088V57.1242H41.9382V59.8429ZM39.3287 53.7181C39.3904 53.5653 39.4831 53.4432 39.5912 53.3362C39.6993 53.2293 39.8382 53.1377 39.9926 53.0766C40.1471 53.0155 40.3015 52.9849 40.4713 52.9849C40.6412 52.9849 40.811 53.0155 40.9654 53.0766C41.1199 53.1377 41.2434 53.2293 41.3515 53.3362C41.4596 53.4432 41.5522 53.5806 41.614 53.7181C41.6757 53.8708 41.7066 54.0388 41.7066 54.2069C41.7066 54.3749 41.6757 54.5429 41.614 54.6956C41.5522 54.8484 41.4596 54.9705 41.3515 55.0927C41.2434 55.1996 41.1044 55.2913 40.9654 55.3524C40.811 55.4135 40.6566 55.444 40.4713 55.444C40.286 55.444 40.1471 55.4135 39.9926 55.3524C39.8382 55.2913 39.6993 55.1996 39.5912 55.0927C39.4831 54.9858 39.3904 54.8484 39.3287 54.6956C39.2669 54.5429 39.236 54.3901 39.236 54.2069C39.236 54.0236 39.2669 53.8708 39.3287 53.7181ZM39.5294 54.6192C39.5757 54.7567 39.6529 54.8636 39.7456 54.9553C39.8382 55.0469 39.9463 55.1233 40.0699 55.1844C40.1934 55.2455 40.3324 55.2607 40.4713 55.2607C40.6103 55.2607 40.7493 55.2302 40.8728 55.1844C40.9963 55.1233 41.1044 55.0622 41.1971 54.9553C41.2897 54.8636 41.3669 54.7414 41.4132 54.6192C41.4596 54.4971 41.4904 54.3443 41.4904 54.2069C41.4904 54.0694 41.4596 53.9166 41.4132 53.7945C41.3669 53.6723 41.2897 53.5501 41.1971 53.4584C41.1044 53.3668 40.9963 53.2904 40.8728 53.2446C40.7493 53.1988 40.6103 53.1682 40.4713 53.1682C40.3324 53.1682 40.1934 53.1988 40.0699 53.2446C39.9463 53.3057 39.8382 53.3668 39.7456 53.4584C39.6529 53.5501 39.5757 53.657 39.5294 53.7945C39.4831 53.9166 39.4522 54.0541 39.4522 54.2069C39.4522 54.3596 39.4831 54.4971 39.5294 54.6192ZM40.5485 53.489C40.7184 53.489 40.8419 53.5195 40.9346 53.5959C41.0118 53.6723 41.0581 53.7639 41.0581 53.9014C41.0581 54.0388 41.0118 54.1305 40.95 54.1916C40.8728 54.2527 40.7801 54.2832 40.6721 54.2985L41.089 54.94H40.8419L40.4404 54.3138H40.2088V54.94H39.9772V53.5043H40.5485V53.489ZM40.4559 54.1305C40.4559 54.1305 40.5485 54.1305 40.5949 54.1305C40.6412 54.1305 40.6875 54.1305 40.7184 54.0999C40.7493 54.0847 40.7801 54.0541 40.811 54.0236C40.8265 53.993 40.8419 53.9472 40.8419 53.8861C40.8419 53.8403 40.8419 53.7945 40.811 53.7792C40.7956 53.7486 40.7647 53.7334 40.7338 53.7181C40.7029 53.7028 40.6721 53.6875 40.6257 53.6875C40.5794 53.6875 40.5485 53.6875 40.5176 53.6875H40.2243V54.1458H40.4559V54.1305ZM5.18824 2.16888C5.09559 2.01615 4.97206 1.87868 4.81765 1.75649C4.66324 1.6343 4.50882 1.54266 4.30809 1.48156C4.12279 1.42047 3.92206 1.37465 3.72132 1.37465C3.35074 1.37465 3.02647 1.45101 2.76397 1.58848C2.50147 1.72594 2.28529 1.9245 2.13088 2.16888C1.96103 2.41327 1.85294 2.6882 1.77574 2.99367C1.69853 3.29915 1.66765 3.6199 1.66765 3.94065C1.66765 4.2614 1.69853 4.56688 1.77574 4.85708C1.85294 5.14728 1.96103 5.42221 2.13088 5.66659C2.30074 5.91098 2.50147 6.09426 2.76397 6.23173C3.02647 6.36919 3.35074 6.44556 3.72132 6.44556C4.23088 6.44556 4.63235 6.29282 4.91029 5.98734C5.20368 5.68187 5.37353 5.26947 5.43529 4.76544H7.04118C6.99485 5.23893 6.88676 5.65132 6.71691 6.03317C6.54706 6.41501 6.3 6.73576 6.02206 6.99542C5.72868 7.25507 5.38897 7.46891 5.00294 7.60637C4.61691 7.74384 4.18456 7.8202 3.72132 7.8202C3.13456 7.8202 2.625 7.71329 2.16176 7.51473C1.69853 7.31617 1.3125 7.04124 0.988235 6.68994C0.663971 6.33864 0.432353 5.92625 0.2625 5.45276C0.0926471 5.00982 0 4.49051 0 3.95592C0 3.42134 0.0772059 2.87148 0.247059 2.39799C0.416912 1.9245 0.663971 1.49684 0.972794 1.14554C1.29706 0.79424 1.68309 0.504037 2.14632 0.305477C2.60956 0.106917 3.13456 0 3.70588 0C4.12279 0 4.52426 0.0610953 4.89485 0.183286C5.26544 0.305477 5.60515 0.473489 5.89853 0.702597C6.19191 0.931704 6.43897 1.20663 6.62426 1.54266C6.80956 1.87868 6.93309 2.26053 6.97941 2.6882H5.37353C5.34265 2.50491 5.28088 2.32162 5.18824 2.16888ZM10.9169 3.49771C10.7316 3.29915 10.4691 3.20751 10.0985 3.20751C9.85147 3.20751 9.66618 3.25333 9.49632 3.3297C9.34191 3.40607 9.20294 3.51298 9.11029 3.63517C9.01765 3.75736 8.94044 3.87955 8.90956 4.01702C8.86324 4.15448 8.84779 4.2614 8.84779 4.36832H11.3029C11.2257 3.98647 11.1022 3.71154 10.9324 3.51298M9.23382 6.36919C9.46544 6.58302 9.78971 6.68994 10.2066 6.68994C10.5154 6.68994 10.7779 6.61357 10.9941 6.46083C11.2103 6.30809 11.3493 6.15536 11.3956 5.98734H12.7235C12.5074 6.64412 12.1831 7.10233 11.7507 7.37726C11.3184 7.65219 10.7779 7.78966 10.1603 7.78966C9.72794 7.78966 9.34191 7.72856 9.00221 7.5911C8.6625 7.45363 8.36912 7.25507 8.12206 7.01069C7.875 6.76631 7.68971 6.46083 7.56618 6.10954C7.44265 5.75824 7.36544 5.37639 7.36544 4.964C7.36544 4.5516 7.42721 4.18503 7.56618 3.83373C7.70515 3.48243 7.89044 3.17696 8.1375 2.93258C8.38456 2.67292 8.67794 2.47436 9.01765 2.3369C9.35735 2.18416 9.74338 2.12306 10.1603 2.12306C10.6235 2.12306 11.025 2.21471 11.3801 2.38272C11.7199 2.566 12.0132 2.79511 12.2294 3.10059C12.4456 3.40607 12.6154 3.74209 12.7081 4.12394C12.8007 4.50578 12.8471 4.9029 12.8162 5.33057H8.86324C8.87868 5.81933 9.00221 6.15536 9.23382 6.38446M14.9162 2.26053V3.2686H14.9316C15.0088 3.10059 15.1015 2.94785 15.225 2.79511C15.3485 2.65765 15.4875 2.53546 15.6419 2.42854C15.7963 2.32162 15.9662 2.24525 16.136 2.19943C16.3059 2.13834 16.4912 2.12306 16.6919 2.12306C16.7846 2.12306 16.8926 2.13834 17.0162 2.16888V3.5588C17.0162 3.5588 16.8618 3.52826 16.7691 3.52826C16.6765 3.52826 16.5684 3.51298 16.4757 3.51298C16.1978 3.51298 15.9662 3.5588 15.7809 3.65045C15.5956 3.74209 15.4412 3.86428 15.3176 4.01702C15.1941 4.16976 15.1169 4.35304 15.0706 4.56688C15.0243 4.78071 14.9934 5.00982 14.9934 5.2542V7.69801H13.4956V2.24525H14.9316L14.9162 2.26053ZM21.0463 2.26053V3.25333H19.95V5.94152C19.95 6.20118 19.9963 6.35392 20.0735 6.44556C20.1507 6.52193 20.3206 6.56775 20.5831 6.56775C20.6603 6.56775 20.7529 6.56775 20.8301 6.56775C20.9074 6.56775 20.9846 6.55248 21.0463 6.5372V7.68274C20.9228 7.69801 20.7838 7.71329 20.6294 7.72856C20.475 7.72856 20.3206 7.72856 20.1816 7.72856C19.95 7.72856 19.7338 7.71329 19.5176 7.68274C19.3169 7.65219 19.1316 7.5911 18.9618 7.49945C18.8074 7.40781 18.6838 7.28562 18.5912 7.11761C18.4985 6.9496 18.4522 6.73576 18.4522 6.46083V3.2686H17.5412V2.2758H18.4522V0.610954H19.95V2.22998H21.0463V2.26053ZM23.4243 7.68274H21.9265V2.24525H23.4243V7.66747V7.68274ZM21.911 0.183286H23.4088V1.40519H21.911V0.183286ZM24.011 3.23805V2.24525H24.9066V1.83286C24.9066 1.3441 25.061 0.962252 25.3699 0.641501C25.6787 0.336024 26.1265 0.183286 26.7441 0.183286C26.8831 0.183286 27.0066 0.183286 27.1456 0.19856C27.2846 0.19856 27.4081 0.213834 27.5316 0.229108V1.3441C27.3618 1.32882 27.1765 1.31355 26.9757 1.31355C26.775 1.31355 26.6206 1.35937 26.5434 1.45101C26.4507 1.54266 26.4044 1.71067 26.4044 1.9245V2.24525H27.439V3.23805H26.4044V7.66747H24.9066V3.23805H24.011ZM29.9713 7.66747H28.4735V2.24525H29.9713V7.66747ZM28.4735 0.183286H29.9713V1.40519H28.4735V0.183286ZM34.0478 3.51298C33.8625 3.31442 33.6 3.22278 33.2294 3.22278C32.9824 3.22278 32.7971 3.2686 32.6272 3.34497C32.4728 3.42134 32.3338 3.52826 32.2412 3.65045C32.1485 3.77264 32.0713 3.89483 32.0404 4.03229C32.0096 4.16976 31.9787 4.27667 31.9787 4.38359H34.4184C34.3412 4.00175 34.2176 3.72682 34.0478 3.52826M32.3493 6.38446C32.5809 6.5983 32.9051 6.70521 33.3221 6.70521C33.6309 6.70521 33.8934 6.62885 34.1096 6.47611C34.3257 6.32337 34.4647 6.17063 34.511 6.00262H35.839C35.6228 6.65939 35.2985 7.11761 34.8662 7.39254C34.4338 7.66747 33.8934 7.80493 33.2757 7.80493C32.8434 7.80493 32.4574 7.74384 32.1176 7.60637C31.7779 7.46891 31.4846 7.27035 31.2375 7.02597C30.9904 6.78158 30.8051 6.47611 30.6816 6.12481C30.5581 5.77351 30.4809 5.39166 30.4809 4.97927C30.4809 4.56688 30.5426 4.20031 30.6816 3.84901C30.8206 3.49771 31.0059 3.19223 31.2529 2.94785C31.5 2.6882 31.7934 2.48964 32.1331 2.35217C32.4728 2.19943 32.8588 2.13834 33.2757 2.13834C33.739 2.13834 34.1559 2.22998 34.4956 2.39799C34.8353 2.58128 35.1287 2.81039 35.3449 3.11586C35.561 3.42134 35.7309 3.75736 35.8235 4.13921C35.9162 4.52106 35.9625 4.91818 35.9316 5.34584H31.9787C31.9941 5.83461 32.1176 6.17063 32.3493 6.39974M40.4404 4.3225C40.3941 4.12394 40.3324 3.94065 40.2243 3.77264C40.1162 3.6199 39.9926 3.48244 39.8228 3.39079C39.6529 3.29915 39.4522 3.23805 39.2051 3.23805C38.9581 3.23805 38.7419 3.28388 38.5875 3.39079C38.4176 3.48244 38.2787 3.6199 38.186 3.77264C38.0779 3.94065 38.0162 4.12394 37.9699 4.3225C37.9235 4.52106 37.9081 4.75016 37.9081 4.964C37.9081 5.17783 37.939 5.37639 37.9853 5.59022C38.0316 5.80406 38.1088 5.98734 38.2169 6.15536C38.325 6.32337 38.464 6.44556 38.6338 6.55248C38.8037 6.65939 39.0044 6.70521 39.236 6.70521C39.4831 6.70521 39.6838 6.65939 39.8537 6.55248C40.0235 6.46083 40.1471 6.32337 40.2551 6.15536C40.3478 5.98734 40.425 5.80406 40.4713 5.59022C40.5176 5.37639 40.5331 5.16256 40.5331 4.93345C40.5331 4.70434 40.5176 4.49051 40.4713 4.29195M40.5331 6.96487C40.3632 7.25507 40.1316 7.46891 39.8382 7.60637C39.5603 7.72856 39.236 7.80493 38.8654 7.80493C38.4485 7.80493 38.0934 7.72856 37.7846 7.57582C37.4757 7.42309 37.2132 7.20925 37.0125 6.93432C36.8118 6.65939 36.6574 6.35392 36.5493 6.00262C36.4412 5.65132 36.3949 5.28475 36.3949 4.91818C36.3949 4.5516 36.4412 4.20031 36.5493 3.86428C36.6574 3.52826 36.7963 3.22278 37.0125 2.96312C37.2132 2.70347 37.4603 2.48964 37.7691 2.3369C38.0779 2.18416 38.4331 2.10779 38.8346 2.10779C39.1588 2.10779 39.4676 2.16888 39.761 2.30635C40.0544 2.44381 40.286 2.64237 40.4559 2.90203H40.4713V0.183286H41.9691V7.66747H40.5331V6.98014H40.5176L40.5331 6.96487ZM3.78309 65.1887C3.70588 64.6694 3.19632 64.2723 2.625 64.2723C1.575 64.2723 1.17353 65.1582 1.17353 66.0746C1.17353 66.9911 1.575 67.8311 2.625 67.8311C3.33529 67.8311 3.75221 67.3424 3.82941 66.655H4.97206C4.84853 67.9686 3.9375 68.8086 2.625 68.8086C0.972794 68.8086 0 67.5867 0 66.0746C0 64.5625 0.972794 63.2948 2.625 63.2948C3.79853 63.2948 4.78677 63.9668 4.92574 65.1887H3.79853H3.78309ZM7.41177 67.9991C8.1375 67.9991 8.35368 67.3882 8.35368 66.7772C8.35368 66.1663 8.1375 65.5553 7.41177 65.5553C6.68603 65.5553 6.48529 66.1663 6.48529 66.7772C6.48529 67.3882 6.70147 67.9991 7.41177 67.9991ZM7.41177 64.7611C8.63162 64.7611 9.41912 65.5553 9.41912 66.7772C9.41912 67.9991 8.63162 68.7781 7.41177 68.7781C6.19191 68.7781 5.41985 67.9839 5.41985 66.7772C5.41985 65.5706 6.20735 64.7611 7.41177 64.7611ZM10.0676 64.8527H11.0713V65.5553H11.0868C11.2875 65.0818 11.7971 64.7458 12.3221 64.7458C12.3993 64.7458 12.4919 64.7458 12.5537 64.7763V65.7539C12.461 65.7386 12.3066 65.7233 12.1676 65.7233C11.3956 65.7233 11.1176 66.2732 11.1176 66.9452V68.6712H10.0522V64.8527H10.0676ZM15.8272 66.7772C15.8272 66.1663 15.5801 65.54 14.9007 65.54C14.2213 65.54 13.9897 66.151 13.9897 66.7772C13.9897 67.4035 14.2213 67.9838 14.9162 67.9838C15.611 67.9838 15.8272 67.3882 15.8272 66.7772ZM12.9551 64.8527H13.9588V65.3415C14.2059 64.9291 14.6228 64.7458 15.1015 64.7458C16.3059 64.7458 16.8618 65.7081 16.8618 66.7925C16.8618 67.8158 16.2904 68.7628 15.1632 68.7628C14.7 68.7628 14.2676 68.5643 14.0051 68.1824H13.9897V70H12.9243V64.8374L12.9551 64.8527ZM19.2088 67.9838C19.9346 67.9838 20.1507 67.3729 20.1507 66.7619C20.1507 66.151 19.9346 65.54 19.2088 65.54C18.4831 65.54 18.2824 66.151 18.2824 66.7619C18.2824 67.3729 18.4985 67.9838 19.2088 67.9838ZM19.2088 64.7458C20.4287 64.7458 21.2162 65.54 21.2162 66.7619C21.2162 67.9838 20.4287 68.7628 19.2088 68.7628C17.989 68.7628 17.2169 67.9686 17.2169 66.7619C17.2169 65.5553 18.0044 64.7458 19.2088 64.7458ZM21.8647 64.8374H22.8684V65.54H22.8838C23.0691 65.0666 23.5941 64.7305 24.1191 64.7305C24.1963 64.7305 24.289 64.7305 24.3507 64.7611V65.7386C24.2581 65.7233 24.1037 65.7081 23.9647 65.7081C23.1926 65.7081 22.9147 66.2579 22.9147 66.93V68.6559H21.8493V64.8374H21.8647ZM27.1147 66.7925C26.9294 66.9452 26.5588 66.9605 26.2346 67.0216C25.9103 67.0827 25.6015 67.2049 25.6015 67.5867C25.6015 67.9686 25.9103 68.0755 26.25 68.0755C27.0838 68.0755 27.1147 67.434 27.1147 67.2049V66.8078V66.7925ZM24.6596 66.0135C24.7213 65.036 25.6015 64.7305 26.4662 64.7305C27.2382 64.7305 28.1647 64.8985 28.1647 65.815V67.8006C28.1647 68.1519 28.1956 68.4879 28.3037 68.6559H27.2228C27.1919 68.5337 27.161 68.4115 27.1456 68.2893C26.8059 68.6406 26.3118 68.7628 25.8485 68.7628C25.1228 68.7628 24.536 68.3962 24.536 67.6173C24.536 66.7619 25.2 66.5481 25.8485 66.4565C26.4971 66.3648 27.0993 66.3801 27.0993 65.9524C27.0993 65.5248 26.7904 65.4331 26.4199 65.4331C26.0184 65.4331 25.7559 65.6011 25.725 66.0135H24.6596ZM30.311 64.8374H31.0831V65.54H30.311V67.434C30.311 67.7853 30.4037 67.8769 30.7588 67.8769C30.8669 67.8769 30.975 67.8769 31.0831 67.8464V68.6712C30.8978 68.7017 30.6662 68.7017 30.4654 68.7017C29.8169 68.7017 29.2456 68.549 29.2456 67.8006V65.5553H28.5971V64.8527H29.2456V63.7072H30.311V64.8527V64.8374ZM31.886 64.8374H32.9515V68.6559H31.886V64.8374ZM32.9515 64.2418H31.886V63.3712H32.9515V64.2418ZM35.6537 67.9686C36.3794 67.9686 36.5956 67.3576 36.5956 66.7467C36.5956 66.1357 36.3794 65.5248 35.6537 65.5248C34.9279 65.5248 34.7272 66.1357 34.7272 66.7467C34.7272 67.3576 34.9434 67.9686 35.6537 67.9686ZM35.6537 64.7305C36.8735 64.7305 37.661 65.5248 37.661 66.7467C37.661 67.9686 36.8735 68.7475 35.6537 68.7475C34.4338 68.7475 33.6618 67.9533 33.6618 66.7467C33.6618 65.54 34.4493 64.7305 35.6537 64.7305ZM38.3404 64.8374H39.3441V65.372H39.3596C39.6221 64.9444 40.0853 64.7305 40.5331 64.7305C41.6603 64.7305 41.9382 65.3568 41.9382 66.3037V68.6559H40.8728V66.5023C40.8728 65.8761 40.6875 65.5706 40.1934 65.5706C39.6221 65.5706 39.375 65.8913 39.375 66.6703V68.6712H38.3096V64.8527L38.3404 64.8374ZM15.4566 41.163H23.4397C26.1882 41.163 27.9331 39.5134 27.9331 36.9169C27.9331 33.8316 25.4162 32.9762 22.7449 32.9762H15.4721V41.163H15.4566ZM15.4566 30.3186H21.8184C25.4316 30.3186 26.914 29.0203 26.914 26.5459C26.914 23.2621 24.5669 22.8038 21.8184 22.8038H15.4566V30.3338V30.3186ZM12.2757 20.1462H20.9537C23.0691 20.1462 25.8485 20.1462 27.2846 21.0015C28.8596 21.9332 30.0949 23.6134 30.0949 25.935C30.0949 28.4552 28.7515 30.3491 26.5434 31.235V31.2961C29.4926 31.8918 31.0985 34.0759 31.0985 36.9932C31.0985 40.4757 28.5816 43.7901 23.8257 43.7901H12.2603V20.1309L12.2757 20.1462ZM21.0463 11.2415C9.45 11.2874 0.0772059 20.5739 0.0772059 32.0292C0.0772059 43.4846 9.46544 52.7558 21.0309 52.7558C32.5963 52.7558 42 43.4693 42 32.0292C42 20.5891 32.6118 11.3026 21.0309 11.3026M39.236 32.0445C39.236 41.9878 31.0831 50.0371 21.0309 50.0371C10.9787 50.0371 2.82574 41.9725 2.82574 32.0292C2.82574 22.086 10.9787 14.0367 21.0154 14.0367C31.0522 14.0367 39.2206 22.1012 39.2206 32.0292M41.9382 59.8429H0.108088V57.1242H41.9382V59.8429ZM39.3287 53.7181C39.3904 53.5653 39.4831 53.4432 39.5912 53.3362C39.6993 53.2293 39.8382 53.1377 39.9926 53.0766C40.1471 53.0155 40.3015 52.9849 40.4713 52.9849C40.6412 52.9849 40.811 53.0155 40.9654 53.0766C41.1199 53.1377 41.2434 53.2293 41.3515 53.3362C41.4596 53.4432 41.5522 53.5806 41.614 53.7181C41.6757 53.8708 41.7066 54.0388 41.7066 54.2069C41.7066 54.3749 41.6757 54.5429 41.614 54.6956C41.5522 54.8484 41.4596 54.9705 41.3515 55.0927C41.2434 55.1996 41.1044 55.2913 40.9654 55.3524C40.811 55.4135 40.6566 55.444 40.4713 55.444C40.286 55.444 40.1471 55.4135 39.9926 55.3524C39.8382 55.2913 39.6993 55.1996 39.5912 55.0927C39.4831 54.9858 39.3904 54.8484 39.3287 54.6956C39.2669 54.5429 39.236 54.3901 39.236 54.2069C39.236 54.0236 39.2669 53.8708 39.3287 53.7181ZM39.5294 54.6192C39.5757 54.7567 39.6529 54.8636 39.7456 54.9553C39.8382 55.0469 39.9463 55.1233 40.0699 55.1844C40.1934 55.2455 40.3324 55.2607 40.4713 55.2607C40.6103 55.2607 40.7493 55.2302 40.8728 55.1844C40.9963 55.1233 41.1044 55.0622 41.1971 54.9553C41.2897 54.8636 41.3669 54.7414 41.4132 54.6192C41.4596 54.4971 41.4904 54.3443 41.4904 54.2069C41.4904 54.0694 41.4596 53.9166 41.4132 53.7945C41.3669 53.6723 41.2897 53.5501 41.1971 53.4584C41.1044 53.3668 40.9963 53.2904 40.8728 53.2446C40.7493 53.1988 40.6103 53.1682 40.4713 53.1682C40.3324 53.1682 40.1934 53.1988 40.0699 53.2446C39.9463 53.3057 39.8382 53.3668 39.7456 53.4584C39.6529 53.5501 39.5757 53.657 39.5294 53.7945C39.4831 53.9166 39.4522 54.0541 39.4522 54.2069C39.4522 54.3596 39.4831 54.4971 39.5294 54.6192ZM40.5485 53.489C40.7184 53.489 40.8419 53.5195 40.9346 53.5959C41.0118 53.6723 41.0581 53.7639 41.0581 53.9014C41.0581 54.0388 41.0118 54.1305 40.95 54.1916C40.8728 54.2527 40.7801 54.2832 40.6721 54.2985L41.089 54.94H40.8419L40.4404 54.3138H40.2088V54.94H39.9772V53.5043H40.5485V53.489ZM40.4559 54.1305C40.4559 54.1305 40.5485 54.1305 40.5949 54.1305C40.6412 54.1305 40.6875 54.1305 40.7184 54.0999C40.7493 54.0847 40.7801 54.0541 40.811 54.0236C40.8265 53.993 40.8419 53.9472 40.8419 53.8861C40.8419 53.8403 40.8419 53.7945 40.811 53.7792C40.7956 53.7486 40.7647 53.7334 40.7338 53.7181C40.7029 53.7028 40.6721 53.6875 40.6257 53.6875C40.5794 53.6875 40.5485 53.6875 40.5176 53.6875H40.2243V54.1458H40.4559V54.1305ZM5.18824 2.16888C5.09559 2.01615 4.97206 1.87868 4.81765 1.75649C4.66324 1.6343 4.50882 1.54266 4.30809 1.48156C4.12279 1.42047 3.92206 1.37465 3.72132 1.37465C3.35074 1.37465 3.02647 1.45101 2.76397 1.58848C2.50147 1.72594 2.28529 1.9245 2.13088 2.16888C1.96103 2.41327 1.85294 2.6882 1.77574 2.99367C1.69853 3.29915 1.66765 3.6199 1.66765 3.94065C1.66765 4.2614 1.69853 4.56688 1.77574 4.85708C1.85294 5.14728 1.96103 5.42221 2.13088 5.66659C2.30074 5.91098 2.50147 6.09426 2.76397 6.23173C3.02647 6.36919 3.35074 6.44556 3.72132 6.44556C4.23088 6.44556 4.63235 6.29282 4.91029 5.98734C5.20368 5.68187 5.37353 5.26947 5.43529 4.76544H7.04118C6.99485 5.23893 6.88676 5.65132 6.71691 6.03317C6.54706 6.41501 6.3 6.73576 6.02206 6.99542C5.72868 7.25507 5.38897 7.46891 5.00294 7.60637C4.61691 7.74384 4.18456 7.8202 3.72132 7.8202C3.13456 7.8202 2.625 7.71329 2.16176 7.51473C1.69853 7.31617 1.3125 7.04124 0.988235 6.68994C0.663971 6.33864 0.432353 5.92625 0.2625 5.45276C0.0926471 5.00982 0 4.49051 0 3.95592C0 3.42134 0.0772059 2.87148 0.247059 2.39799C0.416912 1.9245 0.663971 1.49684 0.972794 1.14554C1.29706 0.79424 1.68309 0.504037 2.14632 0.305477C2.60956 0.106917 3.13456 0 3.70588 0C4.12279 0 4.52426 0.0610953 4.89485 0.183286C5.26544 0.305477 5.60515 0.473489 5.89853 0.702597C6.19191 0.931704 6.43897 1.20663 6.62426 1.54266C6.80956 1.87868 6.93309 2.26053 6.97941 2.6882H5.37353C5.34265 2.50491 5.28088 2.32162 5.18824 2.16888ZM10.9169 3.49771C10.7316 3.29915 10.4691 3.20751 10.0985 3.20751C9.85147 3.20751 9.66618 3.25333 9.49632 3.3297C9.34191 3.40607 9.20294 3.51298 9.11029 3.63517C9.01765 3.75736 8.94044 3.87955 8.90956 4.01702C8.86324 4.15448 8.84779 4.2614 8.84779 4.36832H11.3029C11.2257 3.98647 11.1022 3.71154 10.9324 3.51298M9.23382 6.36919C9.46544 6.58302 9.78971 6.68994 10.2066 6.68994C10.5154 6.68994 10.7779 6.61357 10.9941 6.46083C11.2103 6.30809 11.3493 6.15536 11.3956 5.98734H12.7235C12.5074 6.64412 12.1831 7.10233 11.7507 7.37726C11.3184 7.65219 10.7779 7.78966 10.1603 7.78966C9.72794 7.78966 9.34191 7.72856 9.00221 7.5911C8.6625 7.45363 8.36912 7.25507 8.12206 7.01069C7.875 6.76631 7.68971 6.46083 7.56618 6.10954C7.44265 5.75824 7.36544 5.37639 7.36544 4.964C7.36544 4.5516 7.42721 4.18503 7.56618 3.83373C7.70515 3.48243 7.89044 3.17696 8.1375 2.93258C8.38456 2.67292 8.67794 2.47436 9.01765 2.3369C9.35735 2.18416 9.74338 2.12306 10.1603 2.12306C10.6235 2.12306 11.025 2.21471 11.3801 2.38272C11.7199 2.566 12.0132 2.79511 12.2294 3.10059C12.4456 3.40607 12.6154 3.74209 12.7081 4.12394C12.8007 4.50578 12.8471 4.9029 12.8162 5.33057H8.86324C8.87868 5.81933 9.00221 6.15536 9.23382 6.38446M14.9162 2.26053V3.2686H14.9316C15.0088 3.10059 15.1015 2.94785 15.225 2.79511C15.3485 2.65765 15.4875 2.53546 15.6419 2.42854C15.7963 2.32162 15.9662 2.24525 16.136 2.19943C16.3059 2.13834 16.4912 2.12306 16.6919 2.12306C16.7846 2.12306 16.8926 2.13834 17.0162 2.16888V3.5588C17.0162 3.5588 16.8618 3.52826 16.7691 3.52826C16.6765 3.52826 16.5684 3.51298 16.4757 3.51298C16.1978 3.51298 15.9662 3.5588 15.7809 3.65045C15.5956 3.74209 15.4412 3.86428 15.3176 4.01702C15.1941 4.16976 15.1169 4.35304 15.0706 4.56688C15.0243 4.78071 14.9934 5.00982 14.9934 5.2542V7.69801H13.4956V2.24525H14.9316L14.9162 2.26053ZM21.0463 2.26053V3.25333H19.95V5.94152C19.95 6.20118 19.9963 6.35392 20.0735 6.44556C20.1507 6.52193 20.3206 6.56775 20.5831 6.56775C20.6603 6.56775 20.7529 6.56775 20.8301 6.56775C20.9074 6.56775 20.9846 6.55248 21.0463 6.5372V7.68274C20.9228 7.69801 20.7838 7.71329 20.6294 7.72856C20.475 7.72856 20.3206 7.72856 20.1816 7.72856C19.95 7.72856 19.7338 7.71329 19.5176 7.68274C19.3169 7.65219 19.1316 7.5911 18.9618 7.49945C18.8074 7.40781 18.6838 7.28562 18.5912 7.11761C18.4985 6.9496 18.4522 6.73576 18.4522 6.46083V3.2686H17.5412V2.2758H18.4522V0.610954H19.95V2.22998H21.0463V2.26053ZM23.4243 7.68274H21.9265V2.24525H23.4243V7.66747V7.68274ZM21.911 0.183286H23.4088V1.40519H21.911V0.183286ZM24.011 3.23805V2.24525H24.9066V1.83286C24.9066 1.3441 25.061 0.962252 25.3699 0.641501C25.6787 0.336024 26.1265 0.183286 26.7441 0.183286C26.8831 0.183286 27.0066 0.183286 27.1456 0.19856C27.2846 0.19856 27.4081 0.213834 27.5316 0.229108V1.3441C27.3618 1.32882 27.1765 1.31355 26.9757 1.31355C26.775 1.31355 26.6206 1.35937 26.5434 1.45101C26.4507 1.54266 26.4044 1.71067 26.4044 1.9245V2.24525H27.439V3.23805H26.4044V7.66747H24.9066V3.23805H24.011ZM29.9713 7.66747H28.4735V2.24525H29.9713V7.66747ZM28.4735 0.183286H29.9713V1.40519H28.4735V0.183286ZM34.0478 3.51298C33.8625 3.31442 33.6 3.22278 33.2294 3.22278C32.9824 3.22278 32.7971 3.2686 32.6272 3.34497C32.4728 3.42134 32.3338 3.52826 32.2412 3.65045C32.1485 3.77264 32.0713 3.89483 32.0404 4.03229C32.0096 4.16976 31.9787 4.27667 31.9787 4.38359H34.4184C34.3412 4.00175 34.2176 3.72682 34.0478 3.52826M32.3493 6.38446C32.5809 6.5983 32.9051 6.70521 33.3221 6.70521C33.6309 6.70521 33.8934 6.62885 34.1096 6.47611C34.3257 6.32337 34.4647 6.17063 34.511 6.00262H35.839C35.6228 6.65939 35.2985 7.11761 34.8662 7.39254C34.4338 7.66747 33.8934 7.80493 33.2757 7.80493C32.8434 7.80493 32.4574 7.74384 32.1176 7.60637C31.7779 7.46891 31.4846 7.27035 31.2375 7.02597C30.9904 6.78158 30.8051 6.47611 30.6816 6.12481C30.5581 5.77351 30.4809 5.39166 30.4809 4.97927C30.4809 4.56688 30.5426 4.20031 30.6816 3.84901C30.8206 3.49771 31.0059 3.19223 31.2529 2.94785C31.5 2.6882 31.7934 2.48964 32.1331 2.35217C32.4728 2.19943 32.8588 2.13834 33.2757 2.13834C33.739 2.13834 34.1559 2.22998 34.4956 2.39799C34.8353 2.58128 35.1287 2.81039 35.3449 3.11586C35.561 3.42134 35.7309 3.75736 35.8235 4.13921C35.9162 4.52106 35.9625 4.91818 35.9316 5.34584H31.9787C31.9941 5.83461 32.1176 6.17063 32.3493 6.39974M40.4404 4.3225C40.3941 4.12394 40.3324 3.94065 40.2243 3.77264C40.1162 3.6199 39.9926 3.48244 39.8228 3.39079C39.6529 3.29915 39.4522 3.23805 39.2051 3.23805C38.9581 3.23805 38.7419 3.28388 38.5875 3.39079C38.4176 3.48244 38.2787 3.6199 38.186 3.77264C38.0779 3.94065 38.0162 4.12394 37.9699 4.3225C37.9235 4.52106 37.9081 4.75016 37.9081 4.964C37.9081 5.17783 37.939 5.37639 37.9853 5.59022C38.0316 5.80406 38.1088 5.98734 38.2169 6.15536C38.325 6.32337 38.464 6.44556 38.6338 6.55248C38.8037 6.65939 39.0044 6.70521 39.236 6.70521C39.4831 6.70521 39.6838 6.65939 39.8537 6.55248C40.0235 6.46083 40.1471 6.32337 40.2551 6.15536C40.3478 5.98734 40.425 5.80406 40.4713 5.59022C40.5176 5.37639 40.5331 5.16256 40.5331 4.93345C40.5331 4.70434 40.5176 4.49051 40.4713 4.29195M40.5331 6.96487C40.3632 7.25507 40.1316 7.46891 39.8382 7.60637C39.5603 7.72856 39.236 7.80493 38.8654 7.80493C38.4485 7.80493 38.0934 7.72856 37.7846 7.57582C37.4757 7.42309 37.2132 7.20925 37.0125 6.93432C36.8118 6.65939 36.6574 6.35392 36.5493 6.00262C36.4412 5.65132 36.3949 5.28475 36.3949 4.91818C36.3949 4.5516 36.4412 4.20031 36.5493 3.86428C36.6574 3.52826 36.7963 3.22278 37.0125 2.96312C37.2132 2.70347 37.4603 2.48964 37.7691 2.3369C38.0779 2.18416 38.4331 2.10779 38.8346 2.10779C39.1588 2.10779 39.4676 2.16888 39.761 2.30635C40.0544 2.44381 40.286 2.64237 40.4559 2.90203H40.4713V0.183286H41.9691V7.66747H40.5331V6.98014H40.5176L40.5331 6.96487ZM3.78309 65.1887C3.70588 64.6694 3.19632 64.2723 2.625 64.2723C1.575 64.2723 1.17353 65.1582 1.17353 66.0746C1.17353 66.9911 1.575 67.8311 2.625 67.8311C3.33529 67.8311 3.75221 67.3424 3.82941 66.655H4.97206C4.84853 67.9686 3.9375 68.8086 2.625 68.8086C0.972794 68.8086 0 67.5867 0 66.0746C0 64.5625 0.972794 63.2948 2.625 63.2948C3.79853 63.2948 4.78677 63.9668 4.92574 65.1887H3.79853H3.78309ZM7.41177 67.9991C8.1375 67.9991 8.35368 67.3882 8.35368 66.7772C8.35368 66.1663 8.1375 65.5553 7.41177 65.5553C6.68603 65.5553 6.48529 66.1663 6.48529 66.7772C6.48529 67.3882 6.70147 67.9991 7.41177 67.9991ZM7.41177 64.7611C8.63162 64.7611 9.41912 65.5553 9.41912 66.7772C9.41912 67.9991 8.63162 68.7781 7.41177 68.7781C6.19191 68.7781 5.41985 67.9839 5.41985 66.7772C5.41985 65.5706 6.20735 64.7611 7.41177 64.7611ZM10.0676 64.8527H11.0713V65.5553H11.0868C11.2875 65.0818 11.7971 64.7458 12.3221 64.7458C12.3993 64.7458 12.4919 64.7458 12.5537 64.7763V65.7539C12.461 65.7386 12.3066 65.7233 12.1676 65.7233C11.3956 65.7233 11.1176 66.2732 11.1176 66.9452V68.6712H10.0522V64.8527H10.0676ZM15.8272 66.7772C15.8272 66.1663 15.5801 65.54 14.9007 65.54C14.2213 65.54 13.9897 66.151 13.9897 66.7772C13.9897 67.4035 14.2213 67.9838 14.9162 67.9838C15.611 67.9838 15.8272 67.3882 15.8272 66.7772ZM12.9551 64.8527H13.9588V65.3415C14.2059 64.9291 14.6228 64.7458 15.1015 64.7458C16.3059 64.7458 16.8618 65.7081 16.8618 66.7925C16.8618 67.8158 16.2904 68.7628 15.1632 68.7628C14.7 68.7628 14.2676 68.5643 14.0051 68.1824H13.9897V70H12.9243V64.8374L12.9551 64.8527ZM19.2088 67.9838C19.9346 67.9838 20.1507 67.3729 20.1507 66.7619C20.1507 66.151 19.9346 65.54 19.2088 65.54C18.4831 65.54 18.2824 66.151 18.2824 66.7619C18.2824 67.3729 18.4985 67.9838 19.2088 67.9838ZM19.2088 64.7458C20.4287 64.7458 21.2162 65.54 21.2162 66.7619C21.2162 67.9838 20.4287 68.7628 19.2088 68.7628C17.989 68.7628 17.2169 67.9686 17.2169 66.7619C17.2169 65.5553 18.0044 64.7458 19.2088 64.7458ZM21.8647 64.8374H22.8684V65.54H22.8838C23.0691 65.0666 23.5941 64.7305 24.1191 64.7305C24.1963 64.7305 24.289 64.7305 24.3507 64.7611V65.7386C24.2581 65.7233 24.1037 65.7081 23.9647 65.7081C23.1926 65.7081 22.9147 66.2579 22.9147 66.93V68.6559H21.8493V64.8374H21.8647ZM27.1147 66.7925C26.9294 66.9452 26.5588 66.9605 26.2346 67.0216C25.9103 67.0827 25.6015 67.2049 25.6015 67.5867C25.6015 67.9686 25.9103 68.0755 26.25 68.0755C27.0838 68.0755 27.1147 67.434 27.1147 67.2049V66.8078V66.7925ZM24.6596 66.0135C24.7213 65.036 25.6015 64.7305 26.4662 64.7305C27.2382 64.7305 28.1647 64.8985 28.1647 65.815V67.8006C28.1647 68.1519 28.1956 68.4879 28.3037 68.6559H27.2228C27.1919 68.5337 27.161 68.4115 27.1456 68.2893C26.8059 68.6406 26.3118 68.7628 25.8485 68.7628C25.1228 68.7628 24.536 68.3962 24.536 67.6173C24.536 66.7619 25.2 66.5481 25.8485 66.4565C26.4971 66.3648 27.0993 66.3801 27.0993 65.9524C27.0993 65.5248 26.7904 65.4331 26.4199 65.4331C26.0184 65.4331 25.7559 65.6011 25.725 66.0135H24.6596ZM30.311 64.8374H31.0831V65.54H30.311V67.434C30.311 67.7853 30.4037 67.8769 30.7588 67.8769C30.8669 67.8769 30.975 67.8769 31.0831 67.8464V68.6712C30.8978 68.7017 30.6662 68.7017 30.4654 68.7017C29.8169 68.7017 29.2456 68.549 29.2456 67.8006V65.5553H28.5971V64.8527H29.2456V63.7072H30.311V64.8527V64.8374ZM31.886 64.8374H32.9515V68.6559H31.886V64.8374ZM32.9515 64.2418H31.886V63.3712H32.9515V64.2418ZM35.6537 67.9686C36.3794 67.9686 36.5956 67.3576 36.5956 66.7467C36.5956 66.1357 36.3794 65.5248 35.6537 65.5248C34.9279 65.5248 34.7272 66.1357 34.7272 66.7467C34.7272 67.3576 34.9434 67.9686 35.6537 67.9686ZM35.6537 64.7305C36.8735 64.7305 37.661 65.5248 37.661 66.7467C37.661 67.9686 36.8735 68.7475 35.6537 68.7475C34.4338 68.7475 33.6618 67.9533 33.6618 66.7467C33.6618 65.54 34.4493 64.7305 35.6537 64.7305ZM38.3404 64.8374H39.3441V65.372H39.3596C39.6221 64.9444 40.0853 64.7305 40.5331 64.7305C41.6603 64.7305 41.9382 65.3568 41.9382 66.3037V68.6559H40.8728V66.5023C40.8728 65.8761 40.6875 65.5706 40.1934 65.5706C39.6221 65.5706 39.375 65.8913 39.375 66.6703V68.6712H38.3096V64.8527L38.3404 64.8374Z" fill="white"/>
</svg>