<?xml version="1.0" encoding="utf-8"?>
<svg xmlns="http://www.w3.org/2000/svg" fill="none" height="65" viewBox="0 0 127 65" width="127">
<g clip-path="url(#clip0_2412_1494)">
<path d="M15.2832 62.0607C15.2832 60.4649 16.6578 59.1305 18.2793 59.1305C19.9008 59.1305 21.2567 60.4695 21.2567 62.0607C21.2567 63.6518 19.8961 65 18.2793 65C16.6624 65 15.2832 63.6564 15.2832 62.0607ZM20.3947 62.0607C20.3947 60.8868 19.4302 59.8963 18.2793 59.8963C17.1284 59.8963 16.1545 60.8868 16.1545 62.0607C16.1545 63.2345 17.1284 64.2342 18.2793 64.2342C19.4302 64.2342 20.3947 63.2437 20.3947 62.0607Z" fill="white"/>
<path d="M24.2016 60.0063V61.6571H27.2536V62.4321H24.2016V64.8991H23.3442V59.2268H27.5797V60.0018H24.1969L24.2016 60.0063Z" fill="white"/>
<path d="M30.422 60.0063V61.6571H33.474V62.4321H30.422V64.8991H29.5647V59.2268H33.8002V60.0018H30.4174L30.422 60.0063Z" fill="white"/>
<path d="M35.7992 59.2268H36.6472V64.8991H35.7992V59.2268Z" fill="white"/>
<path d="M38.7346 62.0607C38.7346 60.4649 40.1092 59.1305 41.7307 59.1305C42.5508 59.1305 43.3103 59.4698 43.8554 60.0201L43.259 60.5795C42.8723 60.1668 42.3271 59.8963 41.7307 59.8963C40.5798 59.8963 39.606 60.8868 39.606 62.0607C39.606 63.2345 40.5798 64.2342 41.7307 64.2342C42.3271 64.2342 42.8723 63.9637 43.259 63.5464L43.8554 64.1058C43.3103 64.6515 42.5554 64.9954 41.7307 64.9954C40.1138 64.9954 38.7346 63.6518 38.7346 62.0561V62.0607Z" fill="white"/>
<path d="M45.7612 59.2268H46.6093V64.8991H45.7612V59.2268Z" fill="white"/>
<path d="M52.9602 63.7436H49.9548L49.4516 64.8991H48.5104L50.9846 59.2268H51.9258L54.4 64.8991H53.4588L52.9556 63.7436H52.9602ZM52.6341 62.9915L51.4599 60.2998L50.2857 62.9915H52.6341Z" fill="white"/>
<path d="M60.1311 64.1242V64.8991H56.2218V59.2268H57.0792V64.1242H60.1311Z" fill="white"/>
<path d="M65.5129 59.2268H67.9359C69.152 59.2268 70.0746 59.9925 70.0746 61.0747C70.0746 62.1569 69.152 62.9227 67.9359 62.9227H66.361V64.8945H65.5129V59.2222V59.2268ZM67.8194 62.1477C68.6488 62.1477 69.2126 61.7442 69.2126 61.0747C69.2126 60.4052 68.6488 60.0017 67.8194 60.0017H66.361V62.1477H67.8194Z" fill="white"/>
<path d="M76.0388 63.7436H73.0334L72.5302 64.8991H71.589L74.0632 59.2268H75.0044L77.4786 64.8991H76.5374L76.0342 63.7436H76.0388ZM75.7127 62.9915L74.5385 60.2998L73.3643 62.9915H75.7127Z" fill="white"/>
<path d="M82.4643 62.8448L83.932 64.8991H82.9582L81.5463 62.9273H80.223V64.8991H79.375V59.2268H81.798C83.0141 59.2268 83.9367 59.9926 83.9367 61.0748C83.9367 61.9506 83.3309 62.6201 82.4596 62.8402L82.4643 62.8448ZM80.223 62.1524H81.6815C82.5109 62.1524 83.0747 61.7488 83.0747 61.0794C83.0747 60.4099 82.5109 60.0063 81.6815 60.0063H80.223V62.1524Z" fill="white"/>
<path d="M87.5572 60.0064H85.67V59.2314H90.3016V60.0064H88.4052V64.9038H87.5572V60.0064Z" fill="white"/>
<path d="M92.4124 59.2268H93.2604L96.5733 63.528V59.2268H97.4213V64.8991H96.5733L93.2604 60.5979V64.8991H92.4124V59.2268Z" fill="white"/>
<path d="M100.683 60.0063V61.625H103.735V62.4H100.683V64.1242H104.066V64.8991H99.8303V59.2268H104.066V60.0018H100.683V60.0063Z" fill="white"/>
<path d="M109.261 62.8448L110.729 64.8991H109.755L108.343 62.9273H107.02V64.8991H106.172V59.2268H108.595C109.811 59.2268 110.734 59.9926 110.734 61.0748C110.734 61.9506 110.128 62.6201 109.257 62.8402L109.261 62.8448ZM107.02 62.1524H108.478C109.308 62.1524 109.872 61.7488 109.872 61.0794C109.872 60.4099 109.308 60.0063 108.478 60.0063H107.02V62.1524Z" fill="white"/>
<path d="M14.7845 37.3767C14.6866 26.0459 14.7985 11.6656 17.6641 0.990476C17.8272 0.51358 17.6221 0 17.0583 0C16.6576 0 16.4526 0.197178 16.3314 0.674074C13.8293 11.2804 13.545 22.1206 13.5171 32.9425C12.6131 29.5675 11.6533 25.5185 10.4092 19.9425C9.23965 14.7104 8.59663 10.6247 7.62745 2.33862C7.54824 1.62328 7.14286 1.22892 6.49985 1.22892C5.8149 1.22892 5.41418 1.70582 5.41418 2.49912C5.41418 4.0903 5.57726 6.52064 5.83354 8.94638C5.69375 17.9937 4.9622 30.4617 2.75825 38.5002C2.59517 39.0138 2.39481 39.3347 2.23638 39.3347C1.91488 39.3347 1.63065 38.6194 1.15071 36.478C1.0715 36.1982 0.908419 36.0011 0.544976 36.0011C0.181533 36.0011 -0.060762 36.3175 0.0231094 36.8356C1.19265 42.4254 1.43495 43.8148 2.47868 43.8148C3.20556 43.8148 3.64822 43.26 3.96973 41.9898C5.86615 34.5841 6.47189 24.5877 6.82136 15.9531C8.27047 24.6335 10.4558 33.5478 12.5479 40.0088C12.8321 40.8801 13.354 41.2377 14.039 41.2377C15.1246 41.2377 15.6512 40.4444 15.2877 38.9771C15.12 38.4497 14.9522 37.9178 14.7845 37.3813V37.3767Z" fill="white"/>
<path d="M27.8966 14.5912C28.6235 14.5912 29.7511 13.321 29.7511 12.3718C29.7511 11.4226 29.0662 10.666 28.3393 10.666C27.2909 10.666 27.0486 12.2893 27.0486 13.0459C27.0486 13.9997 27.2909 14.5912 27.8966 14.5912Z" fill="white"/>
<path d="M65.443 29.3795C65.443 29.0219 65.2426 28.7467 64.8792 28.7467C64.5577 28.7467 64.3573 28.9439 64.2735 29.3428C63.9892 31.2046 63.8308 31.7227 63.5466 31.7227C62.9828 31.7227 62.8197 29.2236 62.8197 26.7658C62.8197 24.982 62.7405 21.8913 62.7405 17.7644C62.7405 17.4067 62.5774 17.1316 62.2559 17.1316C61.9344 17.1316 61.7713 17.3287 61.6129 17.6864C59.8562 21.5383 58.3 26.1146 57.2143 30.9891C57.1304 28.4257 57.0232 24.8949 57.0232 22.4416C57.0232 19.9883 56.9813 18.2367 56.9021 17.2095C56.8602 16.5767 56.5806 16.2557 56.0541 16.2557C55.4903 16.2557 55.1688 16.6501 55.1688 17.2462C55.1688 18.4338 55.1688 19.5069 55.0895 20.4561C54.8053 23.8264 54.3627 26.3622 53.3981 29.6547C53.1139 30.6084 52.7924 31.122 52.4709 31.122C51.949 31.122 51.7859 28.6642 51.7859 25.8487C51.7859 22.7947 51.949 20.0617 52.1074 18.0395C52.1494 17.5626 51.8652 17.3654 51.5017 17.3654C51.1383 17.3654 50.896 17.6039 50.8168 17.9615C50.8074 17.9936 50.8028 18.0257 50.7981 18.0532C50.4813 17.801 50.1038 17.6405 49.773 17.6405C47.2336 17.6405 45.421 21.607 44.9784 28.1093C44.8992 29.219 44.778 32.7499 44.0511 32.7499C43.245 32.7499 42.9235 27.7562 42.9235 24.4638C42.9235 22.3637 43.0447 21.254 43.1658 18.5943C43.2078 17.7231 43.245 16.4942 42.7232 16.4942C42.3597 16.4942 41.8751 17.2462 41.2741 18.7548C40.1371 21.6025 39.4708 24.0649 38.7672 28.2607C38.7346 27.3023 38.7067 26.2293 38.6927 25.1379C38.6507 22.4003 38.6927 20.5799 38.4504 17.8423C38.4084 17.4067 38.2873 17.127 37.9658 17.127C37.7235 17.127 37.5231 17.2049 37.2389 17.801C36.1765 20.0067 35.3099 22.2169 34.541 24.8398C34.5504 23.8448 34.5783 22.6113 34.5783 22.437C34.5783 19.8599 34.4991 18.2734 34.336 16.728C34.2568 16.0952 33.8934 15.7375 33.4088 15.7375C32.845 15.7375 32.4815 16.0952 32.3231 16.806C31.6382 19.8187 29.0987 32.5848 27.5704 32.5848C27.3281 32.5848 27.2069 32.1079 27.2069 31.2367C27.2069 29.1365 27.4492 25.7249 28.6561 18.0716C28.7353 17.558 28.493 17.3562 28.1342 17.3562H27.4492C26.8062 17.3562 26.2797 17.7919 26.1213 18.5072C25.7998 19.9333 25.5575 22.3912 25.0729 26.2384C24.6302 29.8839 22.375 34.4832 21.0424 34.4832C20.3994 34.4832 20.0359 34.0476 19.7517 32.9379C19.6911 32.7591 19.6352 32.3097 19.5886 31.6906C19.789 31.3421 19.98 31.0028 20.1524 30.6772C22.1653 26.9125 23.3349 23.1065 23.3349 20.3277C23.3349 18.3055 22.7711 17.3562 21.6015 17.3562C18.9037 17.3562 16.8069 22.4691 16.8069 29.0127C16.8069 30.503 17.0305 31.8878 17.4126 33.0388C17.0585 33.5432 16.6671 34.0751 16.2431 34.6437C16.1219 34.8042 16.0427 35.0014 16.0427 35.1986C16.0427 35.5562 16.327 35.7534 16.6065 35.7534C16.8069 35.7534 16.97 35.7122 17.1703 35.437C17.4126 35.116 17.6782 34.7354 17.9578 34.3181C18.6055 35.5287 19.4721 36.2716 20.4367 36.2716C21.9603 36.2716 23.88 33.7725 24.989 30.6268C24.9937 31.4935 25.0356 32.4748 25.1102 33.6945C25.2732 35.5196 25.674 36.2716 26.522 36.2716C27.0858 36.2716 27.8919 35.437 28.4976 34.2081C29.97 31.2734 31.0744 27.6095 32.6073 20.3689C32.6073 20.4836 32.6073 20.6028 32.6073 20.7266C32.6073 25.7203 32.0435 30.9936 31.1163 35.6342C31.0371 36.0286 31.1582 36.267 31.517 36.267H32.0389C32.803 36.267 33.3296 35.8726 33.4507 35.2353C33.7722 33.612 33.9726 32.3418 34.2987 30.3196C34.7228 27.6966 35.4077 24.9224 36.2045 22.5333C36.1765 23.4734 36.1532 24.4913 36.1532 25.5231C36.1532 28.7742 36.4747 32.0254 37.0805 35.1986C37.2436 35.9919 37.5231 36.267 38.0077 36.267C38.4504 36.267 38.7719 35.9506 38.8558 35.1573C39.126 31.8374 39.7737 27.7838 40.6264 23.9273C40.6963 27.5682 40.687 29.2007 41.0737 31.5531C41.5956 34.607 42.4017 36.2716 43.3289 36.2716C44.0465 36.2716 44.5637 35.3361 45.1088 32.8049C45.5282 34.7859 46.4088 36.2716 47.3175 36.2716C48.296 36.2716 49.3816 34.4282 50.0479 33.0113C50.3368 34.5887 51.0497 36.0698 51.6275 36.0698C52.2053 36.0698 52.7132 35.3545 53.3189 33.7312C54.1856 31.2321 54.6935 29.5308 55.1035 27.4765C55.0243 29.7739 55.0756 32.4335 55.2946 33.7312C55.6161 35.5562 55.8584 36.267 56.5852 36.267C57.191 36.267 57.3494 35.9093 57.4706 35.2353C58.5422 29.2832 59.4835 26.3026 60.4713 23.4367C60.434 24.5968 60.4107 25.7845 60.4107 26.9079C60.4107 29.1273 60.4899 31.0716 60.6111 32.1033C61.0118 34.9968 61.5383 36.267 62.3444 36.267C64.0778 36.267 65.4477 30.5167 65.4477 29.3704L65.443 29.3795ZM19.4768 27.637C19.4768 25.7753 20.404 18.6769 21.5736 18.6769C21.9743 18.6769 22.1374 19.1905 22.1374 20.4607C22.1374 22.3637 21.1682 26.0917 19.9614 28.788C19.8263 29.0861 19.6772 29.3979 19.5048 29.7234C19.4861 29.0677 19.4768 28.357 19.4768 27.637ZM48.4823 33.3873C47.7554 33.3873 47.2336 30.8102 47.2336 27.1647C47.2336 22.9598 48.6454 18.5989 50.0153 18.5989C50.2436 18.5989 50.4254 18.6952 50.6071 18.9337C49.9967 21.8547 49.7311 24.4363 49.7311 27.4398C49.7311 28.6275 49.787 29.8977 49.8755 31.2734C49.4469 32.3739 48.7992 33.3873 48.4823 33.3873Z" fill="white"/>
<path d="M126.52 29.4575C125.775 29.0219 124.801 28.6597 123.883 28.4762C123.501 26.775 123.053 24.8904 123.053 22.5976C123.053 20.7359 123.296 19.4244 123.454 17.7232C123.496 17.2463 123.254 16.9711 122.848 16.9711C122.364 16.9711 122.163 17.2096 122.084 17.6039C121.236 22.162 120.435 24.5006 119.424 27.6371C119.06 28.7055 117.853 32.2777 117.089 32.2777C116.768 32.2777 116.484 31.842 116.484 30.017C116.484 26.5687 117.21 22.327 117.453 18.521C117.495 17.8882 117.089 17.4893 116.446 17.4893C115.841 17.4893 115.44 17.8837 115.398 18.599C115.235 20.6212 114.913 23.157 114.391 26.3302C113.706 30.2142 112.821 32.3189 111.852 32.3189C111.367 32.3189 111.046 31.7228 111.046 30.7323C111.046 25.3397 112.374 18.2826 112.537 17.0537C112.579 16.774 112.458 16.5768 112.136 16.5768H111.493C110.808 16.5768 110.324 16.8932 110.202 17.8057C110.081 18.677 109.918 20.0664 109.518 22.327C108.19 29.7831 106.577 33.3874 104.564 33.3874C103.516 33.3874 102.794 32.0805 102.794 30.1775C102.794 23.3588 104.122 18.5623 105.897 18.5623C106.298 18.5623 106.745 19.1172 106.745 20.071C106.745 21.7768 104.769 22.2537 104.769 23.6018C104.769 24.2346 105.17 24.7115 105.818 24.7115C106.745 24.7115 107.831 23.4046 107.831 20.1535C107.831 18.3284 107.225 17.3792 105.855 17.3792C103.358 17.3792 101.14 21.1852 100.576 27.527C100.334 30.2646 99.3272 32.2043 98.358 32.2043C97.8361 32.2043 97.5519 31.4889 97.5519 30.1821C97.5519 26.0597 98.7587 21.2632 99.8071 18.6449C99.8863 18.4477 99.8863 18.2872 99.7279 18.168L99.3272 17.8882C99.1641 17.769 99.0057 17.7277 98.8053 17.7277C98.4838 17.7277 98.2834 17.8057 98.0411 18.0441C97.277 18.7962 96.592 19.1951 96.0655 19.1951C95.4598 19.1951 95.1802 18.599 95.1802 17.2921C95.1802 16.8565 94.9379 16.5768 94.4952 16.5768C94.0526 16.5768 93.7684 16.8932 93.7684 17.4113C93.7684 21.3366 93.568 23.0791 93.3257 26.133C93.0042 29.9803 92.4404 32.1997 91.7135 32.1997C90.9493 32.1997 90.8282 27.4399 90.8282 23.556C90.8282 21.6942 90.9074 19.4336 91.0286 18.0854C91.0705 17.6498 90.8282 17.3701 90.4228 17.3701C90.0594 17.3701 89.8171 17.5672 89.7379 18.0029C89.7192 18.0946 89.7052 18.1817 89.6866 18.2734C89.3232 17.9295 88.806 17.7277 88.2049 17.7277C85.8705 17.7277 83.8529 22.8039 83.8529 27.9948C83.8529 30.4526 83.0468 33.3874 82.3618 33.3874C82.0403 33.3874 81.7188 32.0805 81.5138 29.939C80.5866 21.0202 80.5074 10.3542 80.9919 3.49423C81.0339 2.89811 80.9127 2.62298 80.5493 2.62298C80.265 2.62298 80.0647 2.78347 79.9435 3.29705C78.1543 10.8632 76.2579 19.5115 75.1536 25.1288C74.9811 22.8681 74.5199 18.8374 73.9001 14.4399C73.2944 10.1983 72.5722 4.44802 72.4091 1.15561C72.3672 0.362311 72.0084 0.00463867 71.3607 0.00463867C70.6338 0.00463867 70.275 0.481535 70.3542 1.27483C70.5033 2.75138 70.6431 4.2325 70.7689 5.67695C70.4894 14.7838 68.332 28.7881 66.2818 38.8992C66.1607 39.4953 65.9184 40.0089 65.3965 40.0089C64.9958 40.0089 64.5904 39.4953 64.227 38.3031C64.1058 37.9454 63.9427 37.7895 63.6212 37.7895C63.1786 37.7895 62.9782 38.2251 63.0994 38.6607C64.6323 44.1725 64.7908 45.0025 65.6388 45.0025C66.2445 45.0025 66.5661 44.4889 66.8876 43.1408C68.4066 37.0053 70.4521 23.4872 71.4399 13.7934C71.5238 14.8847 71.589 15.8293 71.6403 16.5768C72.2833 26.4082 72.5675 31.2046 73.2525 37.2713C73.2944 37.629 73.4528 37.9041 73.8163 37.9041C74.2589 37.9041 74.422 37.5464 74.4593 37.2713C75.6055 29.2971 76.7564 22.5471 77.9306 16.7419C78.1217 24.4272 78.527 31.8329 78.9324 34.8135C79.3331 37.7849 79.8597 38.9771 80.6658 38.9771C81.6629 38.9771 83.1819 36.0882 84.0672 32.805C84.426 34.7951 85.4092 36.2808 86.5088 36.2808C86.9934 36.2808 87.3941 35.9644 87.9579 35.1711C88.2888 34.6942 88.6242 34.0889 89.025 33.181C89.3371 35.0152 90.2364 36.5193 91.1404 36.5193C92.7526 36.5193 93.9221 33.071 94.444 26.3715C94.6117 24.3401 94.7655 22.6434 94.8866 21.2724C95.1522 21.575 95.4877 21.7309 95.8931 21.7309C96.4569 21.7309 97.1046 21.4329 97.9433 20.7542C96.2659 25.3764 95.2874 29.962 95.2874 33.2314C95.2874 35.2124 95.8092 36.2854 96.8203 36.2854C98.0924 36.2854 99.2759 34.6392 100.422 31.3009C100.576 34.1348 101.969 36.2854 103.749 36.2854C105.529 36.2854 107.22 33.8184 108.702 29.5447C108.646 30.4113 108.623 31.0854 108.623 31.6448C108.623 33.0343 108.865 36.2854 110.678 36.2854C111.917 36.2854 112.784 34.9052 114.294 30.1408C114.256 30.8561 114.224 31.6586 114.224 32.4015C114.224 34.818 114.829 36.0882 115.957 36.0882C116.991 36.0882 117.742 35.217 118.795 32.5665C118.953 34.7217 120.267 36.2854 122 36.2854C123.533 36.2854 124.54 34.818 124.54 32.5986V32.4794C124.507 31.2322 124.344 30.503 124.158 29.7052C125.108 29.9207 125.644 30.3013 126.031 30.5764C126.152 30.6544 126.273 30.6956 126.394 30.6956C126.716 30.6956 127 30.4985 127 30.1821C127 29.9023 126.921 29.7052 126.515 29.4667L126.52 29.4575ZM87.6411 33.3828C86.6719 33.3828 86.15 31.4018 86.15 27.715C86.15 22.4417 87.1192 18.677 88.5264 18.677C88.9131 18.677 89.2393 18.8879 89.5049 19.3143C89.0576 22.0794 88.8479 24.95 88.8479 27.9948C88.8479 29.6226 88.8712 30.6819 88.9038 31.5852C88.4845 32.5574 87.9253 33.3874 87.6411 33.3874V33.3828ZM121.763 28.3066C121.763 28.3433 121.767 28.3799 121.772 28.4166C121.073 28.5267 120.491 28.7651 120.025 29.1274C120.686 27.1831 121.185 25.6011 121.6 24.1292C121.6 25.459 121.646 26.83 121.758 28.3066H121.763ZM121.036 33.5387C120.43 33.5387 119.908 32.7454 119.908 31.9154C119.908 30.471 120.514 29.7419 121.884 29.5768C121.986 30.4939 122.084 31.2459 122.084 31.9979C122.084 32.9517 121.684 33.5433 121.036 33.5433V33.5387Z" fill="white"/>
</g>
<defs>
<clipPath id="clip0_2412_1494">
<rect fill="white" height="65" width="127"/>
</clipPath>
</defs>
</svg>